<?xml version="1.0" encoding="utf-8"?>
<!-- Generator: Adobe Illustrator 17.1.0, SVG Export Plug-In . SVG Version: 6.00 Build 0)  -->
<!DOCTYPE svg PUBLIC "-//W3C//DTD SVG 1.1//EN" "http://www.w3.org/Graphics/SVG/1.1/DTD/svg11.dtd">
<svg version="1.1" id="Layer_1" xmlns="http://www.w3.org/2000/svg" xmlns:xlink="http://www.w3.org/1999/xlink" x="0px" y="0px"
	 viewBox="0 0 612 792" enable-background="new 0 0 612 792" xml:space="preserve">
<line fill="none" x1="83.1" y1="322.2" x2="83.8" y2="322.2"/>
<g>
	<g>
		<path fill="#D2232A" d="M112.4,346.3v-48h7.8c9.4,0,13.1,10.2,13.1,24.1c0,14-3.7,24-13,24H112.4z M129.3,322.4
			c0-11.7-2.4-20.5-9-20.5h-4v41h4C127,342.8,129.3,334.1,129.3,322.4z"/>
		<path fill="#D2232A" d="M141.7,346.3v-48h16.4v3.5h-12.6V320h12.1v3.5h-12.1v19.4h12.6v3.5H141.7z"/>
		<path fill="#D2232A" d="M181.6,346.3l-6.7-20.1h-4.8v20.1h-3.8v-48h8.6c6.1,0,10.5,5.1,10.5,13.9c0,8.6-3.8,12.2-6.8,13.2
			l7.3,20.9H181.6z M181.3,312.3c0-6.1-2.2-10.4-6.8-10.4h-4.4v21h4.4C179.2,322.8,181.3,318.4,181.3,312.3z"/>
		<path fill="#D2232A" d="M209.5,346.3l-6.7-20.1H198v20.1h-3.8v-48h8.6c6.1,0,10.5,5.1,10.5,13.9c0,8.6-3.8,12.2-6.8,13.2l7.3,20.9
			H209.5z M209.3,312.3c0-6.1-2.2-10.4-6.8-10.4H198v21h4.4C207.1,322.8,209.3,318.4,209.3,312.3z"/>
		<path fill="#D2232A" d="M222.2,346.3v-48h3.8v48H222.2z"/>
		<path fill="#D2232A" d="M234.3,322.4c0-13.8,3.1-24.8,11.5-24.8c5.4,0,7.6,4.1,9,8.4l-3.3,1.2c-1.2-3.7-2.6-6-5.7-6
			c-5.4,0-7.4,9.4-7.4,21.3s2,21.3,7.4,21.3c3.5,0,4.9-3.2,5.8-7.4l3.4,1.3c-1.2,5-3.7,9.6-9.2,9.6
			C237.4,347.2,234.3,336.2,234.3,322.4z"/>
		<path fill="#D2232A" d="M280.6,346.3l-10.8-21.9l-3.3,6.3v15.6h-3.8v-48h3.8v26.1l13.3-26.1h4.4l-12.3,22.9l13.2,25.1H280.6z"/>
		<path fill="#6D6E71" d="M286.8,344.6l2.4-7.4c1.2,1.4,2.8,1.9,4.4,1.9c3,0,5-1.6,5-5.3v-35.6h9.1v36c0,9-5.3,12.9-13,12.9
			C291.9,347.2,289.1,346.5,286.8,344.6z"/>
		<path fill="#6D6E71" d="M332,346.3l-1.4-8.9h-8.9l-1.4,8.9h-9.4l10-48h10.4l10.1,48H332z M326.1,308.5l-3.5,21h6.9L326.1,308.5z"
			/>
		<path fill="#6D6E71" d="M343,322.4c0-14.3,4.5-24.8,15-24.8c7.8,0,10.5,6.2,12,11.3l-7.2,2.7c-1-3.7-2.2-5.9-4.8-5.9
			c-4.3,0-5.8,7-5.8,16.8s1.4,16.8,5.8,16.8c3,0,4.2-3,4.9-7l7.3,2.7c-1.4,5.5-4.2,12.4-12.2,12.4C347.6,347.2,343,336.6,343,322.4z
			"/>
		<path fill="#6D6E71" d="M395.1,346.3l-7.6-18.3l-3,6v12.2h-9.1v-48h9.1v22.2l10.1-22.2h9.9l-11.7,22.6l12.6,25.4H395.1z"/>
		<path fill="#6D6E71" d="M406.5,342.4l4-7.1c1.9,2.5,5,3.8,7.8,3.8c2.9,0,4.8-2.2,4.8-5.3c0-8.5-15.3-8.5-15.3-23
			c0-7.2,4.9-13.4,13.4-13.4c4,0,7.8,1.4,10.4,3.9l-3.5,7c-1.9-1.9-4.1-2.8-6.6-2.8c-2.6,0-4.5,1.9-4.5,4.8
			c0,7.5,15.3,8.5,15.3,22.9c0,8.1-5.3,13.9-13.5,13.9C413.6,347.2,409.6,345.5,406.5,342.4z"/>
		<path fill="#6D6E71" d="M436.4,322.4c0-14.1,4.4-24.8,15-24.8c10.5,0,15,10.7,15,24.8s-4.5,24.8-15,24.8
			C440.7,347.2,436.4,336.5,436.4,322.4z M457,322.4c0-9.6-1.4-16.8-5.7-16.8c-4.2,0-5.7,7.2-5.7,16.8c0,9.4,1.4,16.8,5.7,16.8
			C455.6,339.1,457,331.8,457,322.4z"/>
		<path fill="#6D6E71" d="M491.1,346.3l-9.7-25.4v25.4h-9.1v-48h9.1l9.2,24.5v-24.5h9.1v48H491.1z"/>
	</g>
	<g>
		<path d="M123.9,378.5c-0.2,0.2-0.5,0.4-0.9,0.7c-0.4,0.3-0.8,0.5-1.3,0.7s-1.1,0.4-1.7,0.6c-0.6,0.2-1.3,0.2-1.9,0.2
			c-1.4,0-2.6-0.2-3.6-0.7s-1.9-1.1-2.6-1.9c-0.7-0.8-1.2-1.8-1.5-2.9c-0.3-1.1-0.5-2.2-0.5-3.5c0-1.2,0.2-2.3,0.5-3.5
			c0.3-1.1,0.8-2.1,1.5-3c0.7-0.9,1.5-1.6,2.4-2.1c1-0.5,2.1-0.8,3.4-0.8c0.9,0,1.7,0.2,2.5,0.5c0.8,0.3,1.5,0.8,2.1,1.4v-1.5
			c0.3-0.1,0.6-0.1,0.9-0.1c0.3,0,0.6,0,0.9,0.1v6.7c-0.3,0.1-0.7,0.1-1,0.1c-0.3,0-0.6,0-1-0.1v-1.2c0-0.6-0.1-1.1-0.3-1.6
			c-0.2-0.5-0.5-0.9-0.8-1.3c-0.4-0.4-0.8-0.7-1.4-0.9c-0.6-0.2-1.2-0.3-1.9-0.3c-1,0-1.8,0.2-2.5,0.7c-0.7,0.5-1.2,1-1.7,1.8
			c-0.4,0.7-0.7,1.5-0.9,2.4c-0.2,0.9-0.3,1.7-0.3,2.6c0,1.3,0.2,2.3,0.5,3.2c0.3,0.9,0.8,1.6,1.3,2.2c0.5,0.6,1.2,1,1.9,1.3
			c0.7,0.3,1.4,0.4,2.2,0.4s1.5-0.1,2.1-0.3c0.6-0.2,1.2-0.5,1.7-0.8c0.5-0.3,0.9-0.6,1.3-0.9c0.3-0.3,0.6-0.6,0.8-0.8V378.5z"/>
		<path d="M138.6,380.8c-1.6,0-2.9-0.3-3.9-0.9c-1-0.6-1.9-1.3-2.5-2.2c-0.6-0.9-1.1-1.9-1.3-3c-0.3-1.1-0.4-2.1-0.4-3.1
			c0-1,0.1-2.1,0.4-3.1c0.3-1.1,0.7-2.1,1.3-3c0.6-0.9,1.5-1.6,2.5-2.2s2.3-0.9,3.9-0.9c1,0,2,0.1,2.8,0.4c0.8,0.3,1.5,0.6,2.1,1.1
			c0.6,0.5,1.1,1,1.5,1.6c0.4,0.6,0.8,1.3,1,1.9c0.3,0.7,0.4,1.4,0.6,2.1c0.1,0.7,0.2,1.4,0.2,2.1c0,0.7-0.1,1.3-0.2,2.1
			c-0.1,0.7-0.3,1.4-0.6,2.1c-0.3,0.7-0.6,1.3-1,1.9c-0.4,0.6-0.9,1.1-1.5,1.6c-0.6,0.5-1.3,0.8-2.1,1.1
			C140.6,380.6,139.7,380.8,138.6,380.8z M138.6,379c0.8,0,1.6-0.2,2.3-0.5c0.7-0.3,1.3-0.8,1.8-1.5s0.9-1.4,1.2-2.3
			c0.3-0.9,0.4-1.9,0.4-3s-0.1-2.1-0.4-3c-0.3-0.9-0.7-1.7-1.2-2.3s-1.1-1.1-1.8-1.5c-0.7-0.3-1.5-0.5-2.3-0.5
			c-0.8,0-1.6,0.2-2.3,0.5c-0.7,0.3-1.3,0.8-1.8,1.5s-0.9,1.4-1.2,2.3c-0.3,0.9-0.4,1.9-0.4,3s0.1,2.1,0.4,3
			c0.3,0.9,0.7,1.7,1.2,2.3s1.1,1.1,1.8,1.5C137,378.8,137.8,379,138.6,379z"/>
		<path d="M154.9,378.7v-14.1h-1.8c-0.1-0.3-0.1-0.6-0.1-0.8s0-0.6,0.1-0.8h5.1l4.1,12.3c0.1,0.2,0.1,0.4,0.2,0.6
			c0.1,0.3,0.1,0.5,0.2,0.8s0.2,0.6,0.2,0.8c0.1,0.3,0.1,0.5,0.2,0.7c0-0.2,0.1-0.5,0.2-0.7s0.2-0.6,0.2-0.8s0.1-0.5,0.2-0.8
			c0.1-0.2,0.1-0.4,0.2-0.6l4.1-12.3h5.1c0.1,0.3,0.1,0.6,0.1,0.8s0,0.6-0.1,0.8h-1.8v14.1h1.8c0.1,0.3,0.1,0.6,0.1,0.8
			s0,0.6-0.1,0.8h-5.7c-0.1-0.3-0.1-0.6-0.1-0.8s0-0.6,0.1-0.8h1.8v-11.8c0-0.4,0-0.8,0-1.3c0-0.5,0-1,0-1.4l-5.2,15.7h-2.1
			l-5.2-15.6c0,0.4,0,0.9,0,1.4c0,0.5,0,0.9,0,1.2v11.8h1.8c0.1,0.3,0.1,0.6,0.1,0.8s0,0.6-0.1,0.8h-5.5c-0.1-0.3-0.1-0.6-0.1-0.8
			s0-0.6,0.1-0.8H154.9z"/>
		<path d="M180.9,378.7v-14.1H179c-0.1-0.3-0.1-0.6-0.1-0.8s0-0.6,0.1-0.8h5.1l4.1,12.3c0.1,0.2,0.1,0.4,0.2,0.6
			c0.1,0.3,0.1,0.5,0.2,0.8s0.2,0.6,0.2,0.8c0.1,0.3,0.1,0.5,0.2,0.7c0-0.2,0.1-0.5,0.2-0.7s0.2-0.6,0.2-0.8s0.1-0.5,0.2-0.8
			c0.1-0.2,0.1-0.4,0.2-0.6l4.1-12.3h5.1c0.1,0.3,0.1,0.6,0.1,0.8s0,0.6-0.1,0.8h-1.8v14.1h1.8c0.1,0.3,0.1,0.6,0.1,0.8
			s0,0.6-0.1,0.8h-5.7c-0.1-0.3-0.1-0.6-0.1-0.8s0-0.6,0.1-0.8h1.8v-11.8c0-0.4,0-0.8,0-1.3c0-0.5,0-1,0-1.4l-5.2,15.7h-2.1
			l-5.2-15.6c0,0.4,0,0.9,0,1.4c0,0.5,0,0.9,0,1.2v11.8h1.8c0.1,0.3,0.1,0.6,0.1,0.8s0,0.6-0.1,0.8H179c-0.1-0.3-0.1-0.6-0.1-0.8
			s0-0.6,0.1-0.8H180.9z"/>
		<path d="M206.7,364.5h-1.8c-0.1-0.3-0.1-0.6-0.1-0.8s0-0.6,0.1-0.8h5.8c0.1,0.3,0.1,0.6,0.1,0.8s0,0.6-0.1,0.8h-1.8v9.7
			c0,0.9,0.1,1.7,0.4,2.3c0.3,0.6,0.6,1.1,1,1.4c0.4,0.4,0.9,0.6,1.4,0.7s1,0.2,1.6,0.2c0.5,0,1.1-0.1,1.6-0.2
			c0.5-0.1,1-0.4,1.4-0.7c0.4-0.4,0.8-0.8,1-1.4c0.3-0.6,0.4-1.3,0.4-2.3v-9.7h-1.8c-0.1-0.3-0.1-0.6-0.1-0.8s0-0.6,0.1-0.8h5.7
			c0.1,0.3,0.1,0.6,0.1,0.8s0,0.6-0.1,0.8h-1.8v10c0,0.8-0.1,1.7-0.4,2.4c-0.3,0.8-0.6,1.4-1.2,2s-1.2,1-2,1.4
			c-0.8,0.3-1.8,0.5-2.9,0.5c-1.1,0-2.1-0.2-3-0.5c-0.8-0.3-1.5-0.8-2.1-1.4s-0.9-1.2-1.2-2s-0.4-1.6-0.4-2.4V364.5z"/>
		<path d="M229.2,378.7v-14.1h-1.8c-0.1-0.3-0.1-0.6-0.1-0.8s0-0.6,0.1-0.8h4.4l7.1,12.2c0.1,0.1,0.2,0.3,0.3,0.5
			c0.1,0.2,0.2,0.4,0.3,0.7c0.1,0.3,0.2,0.5,0.4,0.8c0.1,0.3,0.2,0.5,0.3,0.8c0-0.2,0-0.5,0-0.8c0-0.3,0-0.6,0-0.9
			c0-0.3,0-0.5,0-0.7c0-0.2,0-0.4,0-0.4v-10.4h-1.9c-0.1-0.3-0.1-0.6-0.1-0.8s0-0.6,0.1-0.8h5.8c0.1,0.3,0.1,0.6,0.1,0.8
			s0,0.6-0.1,0.8H242v16h-2.3l-7.4-12.9c-0.1-0.2-0.2-0.4-0.3-0.6c-0.1-0.2-0.2-0.5-0.4-0.7s-0.2-0.5-0.3-0.7
			c-0.1-0.2-0.2-0.5-0.3-0.7c0,0.3,0,0.5,0,0.9c0,0.3,0,0.6,0,1c0,0.3,0,0.6,0,0.9c0,0.3,0,0.5,0,0.6v10.5h1.9
			c0.1,0.3,0.1,0.6,0.1,0.8s0,0.6-0.1,0.8h-5.6c-0.1-0.3-0.1-0.6-0.1-0.8s0-0.6,0.1-0.8H229.2z"/>
		<path d="M251.7,378.7v-14.1h-1.8c-0.1-0.3-0.1-0.6-0.1-0.8s0-0.6,0.1-0.8h5.8c0.1,0.3,0.1,0.6,0.1,0.8s0,0.6-0.1,0.8h-1.8v14.1
			h1.8c0.1,0.3,0.1,0.6,0.1,0.8s0,0.6-0.1,0.8h-5.8c-0.1-0.3-0.1-0.6-0.1-0.8s0-0.6,0.1-0.8H251.7z"/>
		<path d="M276.3,378.5c-0.2,0.2-0.5,0.4-0.9,0.7c-0.4,0.3-0.8,0.5-1.3,0.7s-1.1,0.4-1.7,0.6c-0.6,0.2-1.3,0.2-1.9,0.2
			c-1.4,0-2.6-0.2-3.6-0.7s-1.9-1.1-2.6-1.9c-0.7-0.8-1.2-1.8-1.5-2.9c-0.3-1.1-0.5-2.2-0.5-3.5c0-1.2,0.2-2.3,0.5-3.5
			c0.3-1.1,0.8-2.1,1.5-3c0.7-0.9,1.5-1.6,2.4-2.1c1-0.5,2.1-0.8,3.4-0.8c0.9,0,1.7,0.2,2.5,0.5c0.8,0.3,1.5,0.8,2.1,1.4v-1.5
			c0.3-0.1,0.6-0.1,0.9-0.1c0.3,0,0.6,0,0.9,0.1v6.7c-0.3,0.1-0.7,0.1-1,0.1c-0.3,0-0.6,0-1-0.1v-1.2c0-0.6-0.1-1.1-0.3-1.6
			c-0.2-0.5-0.5-0.9-0.8-1.3c-0.4-0.4-0.8-0.7-1.4-0.9c-0.6-0.2-1.2-0.3-1.9-0.3c-1,0-1.8,0.2-2.5,0.7c-0.7,0.5-1.2,1-1.7,1.8
			c-0.4,0.7-0.7,1.5-0.9,2.4c-0.2,0.9-0.3,1.7-0.3,2.6c0,1.3,0.2,2.3,0.5,3.2c0.3,0.9,0.8,1.6,1.3,2.2c0.5,0.6,1.2,1,1.9,1.3
			c0.7,0.3,1.4,0.4,2.2,0.4s1.5-0.1,2.1-0.3c0.6-0.2,1.2-0.5,1.7-0.8c0.5-0.3,0.9-0.6,1.3-0.9c0.3-0.3,0.6-0.6,0.8-0.8V378.5z"/>
		<path d="M283.7,378.7l5.8-16h2.4l5.5,16h1.6c0.1,0.3,0.1,0.6,0.1,0.8s0,0.6-0.1,0.8H293c-0.1-0.3-0.2-0.6-0.2-0.8s0.1-0.6,0.2-0.8
			h2.1l-1.3-3.9H287l-1.3,3.9h2.1c0.1,0.3,0.1,0.6,0.1,0.8s0,0.6-0.1,0.8h-5.6c-0.1-0.3-0.1-0.6-0.1-0.8s0-0.6,0.1-0.8H283.7z
			 M293.2,373l-2.8-8.1l-2.8,8.1H293.2z"/>
		<path d="M308.3,378.7v-14.1h-4.4v3.6c-0.3,0.1-0.6,0.1-0.9,0.1c-0.3,0-0.6,0-0.9-0.1v-5.4h14.8v5.4c-0.3,0.1-0.6,0.1-0.9,0.1
			c-0.3,0-0.6,0-0.9-0.1v-3.6h-4.4v14.1h1.9c0.1,0.3,0.1,0.6,0.1,0.8s0,0.6-0.1,0.8h-6c-0.1-0.3-0.1-0.6-0.1-0.8s0-0.6,0.1-0.8
			H308.3z"/>
		<path d="M324.6,378.7v-14.1h-1.8c-0.1-0.3-0.1-0.6-0.1-0.8s0-0.6,0.1-0.8h5.8c0.1,0.3,0.1,0.6,0.1,0.8s0,0.6-0.1,0.8h-1.8v14.1
			h1.8c0.1,0.3,0.1,0.6,0.1,0.8s0,0.6-0.1,0.8h-5.8c-0.1-0.3-0.1-0.6-0.1-0.8s0-0.6,0.1-0.8H324.6z"/>
		<path d="M343.4,380.8c-1.6,0-2.9-0.3-3.9-0.9c-1-0.6-1.9-1.3-2.5-2.2c-0.6-0.9-1.1-1.9-1.3-3s-0.4-2.1-0.4-3.1
			c0-1,0.1-2.1,0.4-3.1s0.7-2.1,1.3-3c0.6-0.9,1.5-1.6,2.5-2.2s2.3-0.9,3.9-0.9c1,0,2,0.1,2.8,0.4c0.8,0.3,1.5,0.6,2.1,1.1
			c0.6,0.5,1.1,1,1.5,1.6c0.4,0.6,0.8,1.3,1,1.9s0.4,1.4,0.6,2.1c0.1,0.7,0.2,1.4,0.2,2.1c0,0.7-0.1,1.3-0.2,2.1
			c-0.1,0.7-0.3,1.4-0.6,2.1c-0.3,0.7-0.6,1.3-1,1.9c-0.4,0.6-0.9,1.1-1.5,1.6c-0.6,0.5-1.3,0.8-2.1,1.1S344.4,380.8,343.4,380.8z
			 M343.4,379c0.8,0,1.6-0.2,2.3-0.5c0.7-0.3,1.3-0.8,1.8-1.5c0.5-0.6,0.9-1.4,1.2-2.3c0.3-0.9,0.4-1.9,0.4-3s-0.1-2.1-0.4-3
			c-0.3-0.9-0.7-1.7-1.2-2.3c-0.5-0.6-1.1-1.1-1.8-1.5c-0.7-0.3-1.5-0.5-2.3-0.5s-1.6,0.2-2.3,0.5c-0.7,0.3-1.3,0.8-1.8,1.5
			c-0.5,0.6-0.9,1.4-1.2,2.3c-0.3,0.9-0.4,1.9-0.4,3s0.1,2.1,0.4,3c0.3,0.9,0.7,1.7,1.2,2.3c0.5,0.6,1.1,1.1,1.8,1.5
			C341.8,378.8,342.5,379,343.4,379z"/>
		<path d="M359.6,378.7v-14.1h-1.8c-0.1-0.3-0.1-0.6-0.1-0.8s0-0.6,0.1-0.8h4.4l7.1,12.2c0.1,0.1,0.2,0.3,0.3,0.5
			c0.1,0.2,0.2,0.4,0.3,0.7c0.1,0.3,0.2,0.5,0.4,0.8c0.1,0.3,0.2,0.5,0.3,0.8c0-0.2,0-0.5,0-0.8s0-0.6,0-0.9c0-0.3,0-0.5,0-0.7
			c0-0.2,0-0.4,0-0.4v-10.4h-1.9c-0.1-0.3-0.1-0.6-0.1-0.8s0-0.6,0.1-0.8h5.8c0.1,0.3,0.1,0.6,0.1,0.8s0,0.6-0.1,0.8h-1.9v16h-2.3
			l-7.4-12.9c-0.1-0.2-0.2-0.4-0.3-0.6c-0.1-0.2-0.2-0.5-0.4-0.7s-0.2-0.5-0.3-0.7c-0.1-0.2-0.2-0.5-0.3-0.7c0,0.3,0,0.5,0,0.9
			c0,0.3,0,0.6,0,1c0,0.3,0,0.6,0,0.9s0,0.5,0,0.6v10.5h1.9c0.1,0.3,0.1,0.6,0.1,0.8s0,0.6-0.1,0.8h-5.6c-0.1-0.3-0.1-0.6-0.1-0.8
			s0-0.6,0.1-0.8H359.6z"/>
		<path d="M391.9,378.7l5.8-16h2.4l5.5,16h1.6c0.1,0.3,0.1,0.6,0.1,0.8s0,0.6-0.1,0.8h-5.9c-0.1-0.3-0.2-0.6-0.2-0.8
			s0.1-0.6,0.2-0.8h2.1l-1.3-3.9h-6.8l-1.3,3.9h2.1c0.1,0.3,0.1,0.6,0.1,0.8s0,0.6-0.1,0.8h-5.6c-0.1-0.3-0.1-0.6-0.1-0.8
			s0-0.6,0.1-0.8H391.9z M401.4,373l-2.8-8.1l-2.8,8.1H401.4z"/>
		<path d="M414.4,378.7v-14.1h-1.8c-0.1-0.3-0.1-0.6-0.1-0.8s0-0.6,0.1-0.8h9c0.8,0,1.5,0.1,2.1,0.4c0.6,0.2,1.1,0.6,1.6,1
			s0.7,1,1,1.5c0.2,0.6,0.3,1.2,0.3,1.9c0,0.5-0.1,0.9-0.2,1.4c-0.1,0.5-0.3,1-0.6,1.4c-0.3,0.5-0.6,0.9-1.1,1.2
			c-0.5,0.4-1,0.6-1.7,0.7l3.3,6.1h1.8c0.1,0.3,0.1,0.6,0.1,0.8s0,0.6-0.1,0.8h-3.6l-3.8-7.7h-4v6h2.2c0.1,0.3,0.1,0.6,0.1,0.8
			s0,0.6-0.1,0.8h-6.1c-0.1-0.3-0.1-0.6-0.1-0.8s0-0.6,0.1-0.8H414.4z M420.8,370.9c1,0,1.9-0.2,2.5-0.7s0.9-1.3,0.9-2.4
			c0-1.1-0.3-1.8-0.9-2.3c-0.6-0.5-1.4-0.7-2.4-0.7h-4.3v6.2H420.8z"/>
		<path d="M438.9,378.7v-14.1h-4.4v3.6c-0.3,0.1-0.6,0.1-0.9,0.1c-0.3,0-0.6,0-0.9-0.1v-5.4h14.8v5.4c-0.3,0.1-0.6,0.1-0.9,0.1
			c-0.3,0-0.6,0-0.9-0.1v-3.6h-4.4v14.1h1.9c0.1,0.3,0.1,0.6,0.1,0.8s0,0.6-0.1,0.8h-6c-0.1-0.3-0.1-0.6-0.1-0.8s0-0.6,0.1-0.8
			H438.9z"/>
		<path d="M455.2,378.7v-14.1h-1.8c-0.1-0.3-0.1-0.6-0.1-0.8s0-0.6,0.1-0.8h5.8c0.1,0.3,0.1,0.6,0.1,0.8s0,0.6-0.1,0.8h-1.8v14.1
			h1.8c0.1,0.3,0.1,0.6,0.1,0.8s0,0.6-0.1,0.8h-5.8c-0.1-0.3-0.1-0.6-0.1-0.8s0-0.6,0.1-0.8H455.2z"/>
		<path d="M465.6,374.1c0.3-0.1,0.7-0.1,1-0.1c0.3,0,0.6,0,0.9,0.1v1c0,0.5,0.1,1,0.4,1.4s0.6,0.9,1,1.2c0.4,0.4,1,0.6,1.6,0.8
			s1.4,0.3,2.2,0.3c1.3,0,2.3-0.3,3-0.8c0.7-0.5,1.1-1.2,1.1-2.1c0-0.5-0.1-0.9-0.3-1.2c-0.2-0.3-0.4-0.6-0.7-0.9
			c-0.3-0.3-0.6-0.5-1.1-0.7c-0.4-0.2-0.9-0.3-1.3-0.5l-3.8-1c-0.5-0.1-0.9-0.3-1.4-0.5c-0.4-0.2-0.8-0.5-1.2-0.9
			c-0.3-0.3-0.6-0.7-0.8-1.2s-0.3-1-0.3-1.6c0-0.8,0.2-1.6,0.5-2.2c0.3-0.6,0.7-1.1,1.2-1.6c0.5-0.4,1.1-0.7,1.8-1
			c0.7-0.2,1.4-0.3,2.2-0.3c1.2,0,2.2,0.2,3,0.6c0.8,0.4,1.4,0.9,1.8,1.5v-1.7c0.3-0.1,0.6-0.1,0.9-0.1c0.3,0,0.6,0,0.9,0.1v5.9
			c-0.3,0.1-0.6,0.1-0.9,0.1c-0.3,0-0.6,0-0.9-0.1v-0.8c0-0.5-0.1-0.9-0.3-1.4c-0.2-0.4-0.5-0.8-0.9-1.2s-0.9-0.6-1.4-0.8
			c-0.6-0.2-1.2-0.3-2-0.3c-1.1,0-1.9,0.2-2.6,0.7c-0.7,0.5-1,1.2-1,2.2c0,0.7,0.2,1.2,0.6,1.6c0.4,0.4,1,0.7,1.9,0.9l3.8,1
			c0.7,0.2,1.4,0.4,1.9,0.7c0.6,0.3,1.1,0.6,1.5,1c0.4,0.4,0.7,0.9,0.9,1.5c0.2,0.6,0.3,1.2,0.3,2s-0.2,1.4-0.5,2
			c-0.3,0.6-0.8,1.1-1.3,1.5c-0.6,0.4-1.2,0.7-2,0.9c-0.8,0.2-1.6,0.3-2.5,0.3c-1.3,0-2.4-0.2-3.3-0.6c-0.9-0.4-1.6-0.9-2.1-1.6v1.8
			c-0.3,0.1-0.6,0.1-0.9,0.1c-0.3,0-0.6,0-0.9-0.1V374.1z"/>
		<path d="M490.9,378.7v-14.1h-4.4v3.6c-0.3,0.1-0.6,0.1-0.9,0.1c-0.3,0-0.6,0-0.9-0.1v-5.4h14.8v5.4c-0.3,0.1-0.6,0.1-0.9,0.1
			c-0.3,0-0.6,0-0.9-0.1v-3.6h-4.4v14.1h1.9c0.1,0.3,0.1,0.6,0.1,0.8s0,0.6-0.1,0.8h-6c-0.1-0.3-0.1-0.6-0.1-0.8s0-0.6,0.1-0.8
			H490.9z"/>
	</g>
	<linearGradient id="SVGID_1_" gradientUnits="userSpaceOnUse" x1="95.2308" y1="354.4615" x2="516.7692" y2="354.4615">
		<stop  offset="0" style="stop-color:#FFFFFF"/>
		<stop  offset="1.214899e-02" style="stop-color:#ECECEC"/>
		<stop  offset="3.934883e-02" style="stop-color:#C7C7C7"/>
		<stop  offset="6.977377e-02" style="stop-color:#A5A5A5"/>
		<stop  offset="0.1032" style="stop-color:#8A8A8A"/>
		<stop  offset="0.1406" style="stop-color:#737373"/>
		<stop  offset="0.1839" style="stop-color:#626262"/>
		<stop  offset="0.2367" style="stop-color:#555555"/>
		<stop  offset="0.3091" style="stop-color:#4E4E4E"/>
		<stop  offset="0.4925" style="stop-color:#4D4D4D"/>
		<stop  offset="0.6942" style="stop-color:#4E4E4E"/>
		<stop  offset="0.7668" style="stop-color:#555555"/>
		<stop  offset="0.8186" style="stop-color:#616161"/>
		<stop  offset="0.8605" style="stop-color:#727272"/>
		<stop  offset="0.8963" style="stop-color:#888888"/>
		<stop  offset="0.9281" style="stop-color:#A3A3A3"/>
		<stop  offset="0.9568" style="stop-color:#C3C3C3"/>
		<stop  offset="0.9823" style="stop-color:#E8E8E8"/>
		<stop  offset="0.9962" style="stop-color:#FFFFFF"/>
	</linearGradient>
	<line fill="none" stroke="url(#SVGID_1_)" stroke-width="2" stroke-miterlimit="10" x1="95.2" y1="354.5" x2="516.8" y2="354.5"/>
</g>
</svg>
